<svg width="24" height="24" viewBox="0 0 24 24" fill="none" xmlns="http://www.w3.org/2000/svg">
<path fill-rule="evenodd" clip-rule="evenodd" d="M5.39523 4.41863C6.06253 4.14223 6.77773 3.99996 7.50001 3.99996C8.22228 3.99996 8.93749 4.14223 9.60478 4.41863C10.2721 4.69504 10.8784 5.10017 11.3891 5.6109M12 6.22179L3.6109 5.6109L5.39523 4.41863L11.3891 5.6109M12 6.22179L12.6109 5.61089C13.6424 4.57944 15.0413 3.99997 16.5 3.99997C17.9587 3.99997 19.3577 4.57944 20.3891 5.61089C21.4206 6.64235 22 8.0413 22 9.5C22 10.9587 21.4206 12.3577 20.3891 13.3891L12.7071 21.0711C12.5196 21.2586 12.2652 21.364 12 21.364C11.7348 21.364 11.4804 21.2586 11.2929 21.0711L3.61091 13.3891C3.10018 12.8784 2.69504 12.2721 2.41864 11.6048C2.14223 10.9375 1.99997 10.2223 1.99997 9.5C1.99997 8.77773 2.14223 8.06252 2.41864 7.39523C2.69504 6.72794 3.10017 6.12162 3.6109 5.6109M5.39523 4.41863C4.72794 4.69503 4.12162 5.10017 3.6109 5.6109ZM7.50001 5.99996C7.04038 5.99996 6.58525 6.09049 6.16061 6.26639C5.73596 6.44228 5.35012 6.70009 5.02512 7.0251C4.70011 7.35011 4.44229 7.73596 4.2664 8.1606C4.0905 8.58524 3.99997 9.04037 3.99997 9.5C3.99997 9.95963 4.0905 10.4148 4.2664 10.8394C4.44229 11.264 4.7001 11.6499 5.02511 11.9749L12 18.9498L18.9749 11.9749C19.6313 11.3185 20 10.4283 20 9.5C20 8.57174 19.6313 7.68149 18.9749 7.02511C18.3185 6.36872 17.4283 5.99997 16.5 5.99997C15.5717 5.99997 14.6815 6.36873 14.0251 7.02511L12.7071 8.34311C12.5196 8.53064 12.2652 8.636 12 8.636C11.7348 8.636 11.4804 8.53064 11.2929 8.34311L9.9749 7.02511C9.6499 6.7001 9.26405 6.44228 8.83941 6.26639C8.41477 6.09049 7.95964 5.99996 7.50001 5.99996Z" fill="black"/>
</svg>
